Coordinates
version=1
nRows=25
nColumns=23
inDegrees=yes

Units are S.I. units (second, meters, Newtons, ...)
If the header above contains a line with 'inDegrees', this indicates whether rotational values are in degrees (yes) or radians (no).

endheader
time	pelvis_tilt	pelvis_list	pelvis_rotation	pelvis_tx	pelvis_ty	pelvis_tz	hip_flexion_r	hip_adduction_r	hip_rotation_r	knee_angle_r	knee_angle_r_beta	ankle_angle_r	subtalar_angle_r	mtp_angle_r	hip_flexion_l	hip_adduction_l	hip_rotation_l	knee_angle_l	knee_angle_l_beta	ankle_angle_l	subtalar_angle_l	mtp_angle_l
      0.00000000	    -14.99127263	     -1.22390064	     -3.20603165	      2.12470448	      0.99826179	      1.02089872	     38.34342787	      3.95009980	     -3.66930924	     50.09227484	      0.87427513	     25.13684006	     -8.47682654	      0.00000000	     29.44648427	    -10.19381132	     -0.75538909	    103.99636238	      1.81507893	     -1.76541073	     -9.47256262	      0.00000000
      0.00666667	    -15.06474545	     -1.33458672	     -3.04297723	      2.12354551	      0.99907535	      1.02055658	     37.17552547	      3.65700925	     -4.23290223	     49.77021742	      0.86865416	     25.87195195	     -7.46168037	      0.00000000	     31.18054906	    -10.22858089	     -0.40878656	    104.28740848	      1.82015865	     -1.53163941	     -9.19821710	      0.00000000
      0.01333333	    -15.04047184	     -1.22146900	     -3.04667799	      2.12251264	      1.00018789	      1.02041199	     35.89889887	      3.40762099	     -4.21152153	     49.36561851	      0.86159258	     26.30747428	     -7.23951081	      0.00000000	     32.66479037	    -10.06176536	     -0.35113273	    104.37049473	      1.82160877	     -1.45724964	     -9.12934294	      0.00000000
      0.02000000	    -15.13492145	     -1.40168089	     -2.72158770	      2.12149378	      1.00110500	      1.01978149	     34.67922392	      2.94603277	     -5.29661461	     48.93621124	      0.85409801	     27.07803042	     -5.42532502	      0.00000000	     34.40887116	    -10.02078109	      0.15537842	    104.48048371	      1.82352844	     -1.14281098	     -8.69641961	      0.00000000
      0.02666667	    -15.09471260	     -1.25862966	     -2.66965493	      2.12081903	      1.00279253	      1.01938515	     33.27900294	      2.38201657	     -5.89540245	     48.38731956	      0.84451804	     27.60760557	     -3.89037469	      0.00000000	     35.75522347	     -9.77386920	      0.13385643	    104.20807686	      1.81877405	     -0.95068531	     -8.52460423	      0.00000000
      0.03333333	    -15.22165460	     -1.12141924	     -2.70210061	      2.12013249	      1.00477302	      1.01920037	     31.99149472	      2.12208776	     -5.93330229	     47.60447995	      0.83085491	     27.71897531	     -3.44391379	      0.00000000	     37.20475158	     -9.58238767	      0.01861632	    103.71713482	      1.81020549	     -0.78479710	     -8.43183735	      0.00000000
      0.04000000	    -15.14612253	     -1.07484222	     -2.65311157	      2.11999532	      1.00758962	      1.01880224	     30.33820115	      1.56112029	     -6.88657596	     46.66284359	      0.81442026	     27.87909134	     -1.47768023	      0.00000000	     38.31755112	     -9.46037215	     -0.08944571	    102.94316413	      1.79669716	     -0.40111893	     -8.08779932	      0.00000000
      0.04666667	    -15.20648845	     -0.88264935	     -2.69736074	      2.11998834	      1.01079452	      1.01851222	     28.80625887	      1.04078547	     -7.43836919	     45.59570362	      0.79579515	     27.76175044	     -0.02577607	      0.00000000	     39.43433867	     -9.24379321	     -0.42073017	    101.87399163	      1.77803658	     -0.07768354	     -7.94620387	      0.00000000
      0.05333333	    -15.29389388	     -0.66992241	     -2.76675900	      2.12014817	      1.01449176	      1.01826680	     27.26042672	      0.54716402	     -7.94986783	     44.40823926	      0.77506999	     27.44362486	      1.35854048	      0.00000000	     40.46282692	     -9.02091974	     -0.83499444	    100.52905268	      1.75456296	      0.31326727	     -7.76681498	      0.00000000
      0.06000000	    -15.79965799	     -0.39936443	     -2.92338154	      2.12026458	      1.01808724	      1.01817503	     26.18485031	      0.23142805	     -7.96961132	     43.14104755	      0.75295332	     27.03221421	      1.83601056	      0.00000000	     41.83386119	     -8.81556246	     -1.37679894	     98.94945416	      1.72699377	      0.68756783	     -7.68531702	      0.00000000
      0.06666667	    -15.55177224	     -0.14432643	     -2.94158062	      2.12124431	      1.02327809	      1.01775421	     24.12784718	     -0.53681169	     -9.10377384	     41.67820958	      0.72742198	     25.95262774	      4.22446735	      0.00000000	     42.17907437	     -8.51140469	     -1.92362470	     97.00271450	      1.69301675	      1.18366569	     -7.44768028	      0.00000000
      0.07333333	    -15.88637519	      0.11317299	     -3.04018620	      2.12196061	      1.02798478	      1.01757267	     22.76333207	     -0.93723114	     -9.47213309	     40.14592988	      0.70067866	     24.51624570	      5.03026716	      0.00000000	     43.08915257	     -8.29898658	     -2.53291480	     94.88280038	      1.65601727	      1.60089969	     -7.33372728	      0.00000000
      0.08000000	    -15.72650147	      0.34782925	     -3.06347367	      2.12332958	      1.03375430	      1.01727177	     20.76798860	     -1.46710719	    -10.25492333	     38.46941075	      0.67141788	     23.02040930	      6.44945421	      0.00000000	     43.27102813	     -8.01809871	     -3.13308624	     92.46025354	      1.61373585	      2.05220143	     -7.18837302	      0.00000000
      0.08666667	    -15.74840697	      0.62486216	     -3.08278653	      2.12474011	      1.03943312	      1.01699898	     19.01920306	     -1.97115496	    -10.93855118	     36.80107479	      0.64229992	     21.13865437	      7.61251124	      0.00000000	     43.54344754	     -7.70882275	     -3.78117971	     89.83939879	      1.56799331	      2.44564570	     -7.08789520	      0.00000000
      0.09333333	    -15.74581459	      0.87868465	     -3.08251144	      2.12632987	      1.04530324	      1.01674794	     17.25518896	     -2.39745274	    -11.55828158	     35.07759258	      0.61221948	     18.93760663	      8.47430016	      0.00000000	     43.66676565	     -7.41015878	     -4.43323604	     87.00285486	      1.51848628	      2.80025307	     -7.04919418	      0.00000000
      0.10000000	    -15.68611834	      1.13788928	     -3.04697820	      2.12810185	      1.05130493	      1.01647705	     15.46048530	     -2.82056642	    -12.21280752	     33.35533594	      0.58216044	     16.49439723	      9.22369151	      0.00000000	     43.60649447	     -7.07013623	     -5.08246388	     83.96066524	      1.46539005	      3.11558215	     -7.01901682	      0.00000000
      0.10666667	    -15.57148853	      1.41660222	     -3.02314291	      2.13002614	      1.05733671	      1.01628265	     13.67431057	     -3.24186243	    -12.83874035	     31.69893380	      0.55325076	     13.92231103	      9.93827693	      0.00000000	     43.36024097	     -6.73113173	     -5.79946952	     80.72560933	      1.40892767	      3.43403844	     -6.96463828	      0.00000000
      0.11333333	    -15.77172421	      1.73682640	     -3.00217798	      2.13173475	      1.06273322	      1.01606395	     12.39088410	     -3.67902655	    -13.37447556	     30.26584748	      0.52823869	     11.09419142	     10.33018866	      0.00000000	     43.38965773	     -6.35914715	     -6.54722815	     77.35851555	      1.35016080	      3.71910346	     -6.92043389	      0.00000000
      0.12000000	    -15.31061083	      1.96841486	     -2.86863325	      2.13405652	      1.06901881	      1.01584075	     10.27771393	     -4.01255908	    -14.00710571	     28.61383368	      0.49940561	      8.40136040	     10.70735839	      0.00000000	     42.54906301	     -5.93718395	     -7.17932685	     73.74437567	      1.28708216	      3.98782510	     -6.97850612	      0.00000000
      0.12666667	    -15.19044548	      2.25769302	     -2.76445859	      2.13608428	      1.07451543	      1.01564796	      8.74343971	     -4.39207340	    -14.55229996	     27.29260606	      0.47634584	      5.60584463	     10.87475287	      0.00000000	     42.01761003	     -5.49617825	     -7.88473199	     70.01097529	      1.22192203	      4.27642181	     -6.93279723	      0.00000000
      0.13333333	    -15.37280880	      2.56380052	     -2.69310068	      2.13786840	      1.07923452	      1.01543649	      7.74968263	     -4.82423848	    -15.11394614	     26.34270379	      0.45976691	      2.81160165	     10.88902108	      0.00000000	     41.75192408	     -5.08849781	     -8.68420908	     66.17722602	      1.15501048	      4.61374440	     -6.77943711	      0.00000000
      0.14000000	    -14.98384275	      2.79649660	     -2.53248031	      2.14001220	      1.08453477	      1.01517966	      6.07375777	     -5.12065870	    -15.56856959	     25.25585666	      0.44079785	      0.18061764	     10.66531548	      0.00000000	     40.75414936	     -4.60339667	     -9.35346213	     62.13743794	      1.08450288	      4.90607611	     -6.72052687	      0.00000000
      0.14666667	    -14.95953882	      3.04322265	     -2.38496660	      2.14183865	      1.08889963	      1.01488058	      5.02631660	     -5.48295244	    -16.08505677	     24.61801236	      0.42966537	     -2.35372916	     10.31974894	      0.00000000	     40.10734527	     -4.13322540	    -10.09048847	     58.01811432	      1.01260712	      5.23640699	     -6.49084872	      0.00000000
      0.15333333	    -15.23750040	      3.24157255	     -2.22832517	      2.14334531	      1.09235350	      1.01449570	      4.52339277	     -5.86359450	    -16.72549170	     24.43378655	      0.42645002	     -4.75911470	      9.93055700	      0.00000000	     39.76977777	     -3.69958746	    -10.81970171	     53.86565459	      0.94013303	      5.60963708	     -6.03649719	      0.00000000
      0.16000000	    -14.95459680	      3.44915523	     -2.02925047	      2.14521318	      1.09636575	      1.01403929	      3.37431787	     -6.20503667	    -17.20838030	     24.17119423	      0.42186692	     -6.96252991	      9.27057660	      0.00000000	     38.68343276	     -3.17242157	    -11.59368413	     49.49556398	      0.86386056	      5.87059053	     -5.63737529	      0.00000000
